<svg width="64" height="64" viewBox="0 0 64 64" fill="none" xmlns="http://www.w3.org/2000/svg">
<rect width="64" height="64" fill="black"/>
<path d="M53.28 15.1733C48.8 11.6 42.4 10.6133 39.6267 10.32H39.52C39.0933 10.32 38.6933 10.56 38.56 10.96C38.32 11.5733 38.6933 12.24 39.3067 12.3467C42.4267 12.9867 46.0267 14.1067 49.3067 16.16C49.9733 16.56 50.1333 17.4667 49.6 18.08C49.1733 18.56 48.4533 18.6133 47.8933 18.2933C41.4933 14.3467 33.5467 14.1333 32 14.1333C30.4533 14.1333 22.5067 14.3467 16.1067 18.2933C15.5467 18.6133 14.8267 18.56 14.4 18.08C13.8667 17.4667 14.0267 16.56 14.6933 16.16C17.9733 14.1067 21.5733 12.9867 24.6933 12.3467C25.3067 12.24 25.68 11.5733 25.44 10.96C25.3067 10.56 24.9067 10.32 24.48 10.32H24.3733C21.6 10.6133 15.2 11.6 10.72 15.1733C8.10666 17.6 2.90666 31.5467 2.66666 43.8933C2.66666 44.72 2.87999 45.5467 3.35999 46.2133C6.47999 50.6133 13.2533 53.2533 18.3733 53.6267C19.1467 53.68 19.8933 53.3333 20.3467 52.6933C20.3733 52.6933 20.3733 52.6667 20.4 52.64C21.3333 51.36 20.7733 49.5467 19.28 48.9867C15.0133 47.4133 12.8267 45.5467 12.6933 45.4133C12.16 44.9333 12.1067 44.1333 12.56 43.6C13.04 43.0667 13.84 43.0133 14.3733 43.4933C14.4533 43.5467 20.3733 48.5867 32 48.5867C43.6267 48.5867 49.5467 43.5467 49.6267 43.4933C50.16 43.0133 50.96 43.0667 51.44 43.6C51.8933 44.1333 51.84 44.9333 51.3067 45.4133C51.1733 45.5467 48.9867 47.4133 44.72 48.9867C43.2267 49.5467 42.6667 51.36 43.6 52.64C43.6267 52.6667 43.6267 52.6933 43.6533 52.6933C44.1067 53.3333 44.8533 53.68 45.6267 53.6267C50.7467 53.2533 57.52 50.6133 60.64 46.2133C61.12 45.5467 61.3333 44.72 61.3333 43.8933C61.0933 31.5467 55.8933 17.6 53.28 15.1733ZM23.7067 39.6533C21.2533 39.6533 19.2533 37.36 19.2533 34.56C19.2533 31.7333 21.2533 29.44 23.7067 29.44C26.1867 29.44 28.16 31.7333 28.16 34.56C28.16 37.36 26.1867 39.6533 23.7067 39.6533ZM40.2933 39.6533C37.8133 39.6533 35.84 37.36 35.84 34.56C35.84 31.7333 37.8133 29.44 40.2933 29.44C42.7467 29.44 44.7467 31.7333 44.7467 34.56C44.7467 37.36 42.7467 39.6533 40.2933 39.6533Z" fill="white"/>
</svg>
