<svg width="63" height="64" viewBox="0 0 63 64" fill="none" xmlns="http://www.w3.org/2000/svg">
<rect width="63" height="64" fill="black"/>
<path d="M21 8C13.7524 8 7.875 13.9707 7.875 21.3333V42.6667C7.875 50.0293 13.7524 56 21 56H42C49.2476 56 55.125 50.0293 55.125 42.6667V21.3333C55.125 13.9707 49.2476 8 42 8H21ZM47.25 13.3333C48.699 13.3333 49.875 14.528 49.875 16C49.875 17.472 48.699 18.6667 47.25 18.6667C45.801 18.6667 44.625 17.472 44.625 16C44.625 14.528 45.801 13.3333 47.25 13.3333ZM31.5 18.6667C38.7476 18.6667 44.625 24.6373 44.625 32C44.625 39.3627 38.7476 45.3333 31.5 45.3333C24.2524 45.3333 18.375 39.3627 18.375 32C18.375 24.6373 24.2524 18.6667 31.5 18.6667ZM31.5 24C29.4114 24 27.4084 24.8429 25.9315 26.3431C24.4547 27.8434 23.625 29.8783 23.625 32C23.625 34.1217 24.4547 36.1566 25.9315 37.6569C27.4084 39.1571 29.4114 40 31.5 40C33.5886 40 35.5916 39.1571 37.0685 37.6569C38.5453 36.1566 39.375 34.1217 39.375 32C39.375 29.8783 38.5453 27.8434 37.0685 26.3431C35.5916 24.8429 33.5886 24 31.5 24Z" fill="white"/>
</svg>
