<svg width="64" height="63" viewBox="0 0 64 63" fill="none" xmlns="http://www.w3.org/2000/svg">
<rect width="64" height="63" fill="black"/>
<path d="M48 5.25C45.8783 5.25 43.8434 6.07969 42.3431 7.55653C40.8429 9.03338 40 11.0364 40 13.125C40.0016 13.6189 40.0505 14.1115 40.1458 14.5964L21.1719 25.4912C19.7267 24.2861 17.894 23.6248 16 23.625C13.8783 23.625 11.8434 24.4547 10.3431 25.9315C8.84285 27.4084 8 29.4114 8 31.5C8 33.5886 8.84285 35.5916 10.3431 37.0685C11.8434 38.5453 13.8783 39.375 16 39.375C17.8911 39.3713 19.7197 38.7084 21.1615 37.5037L40.1458 48.4036C40.0505 48.8885 40.0016 49.3811 40 49.875C40 51.9636 40.8429 53.9666 42.3431 55.4435C43.8434 56.9203 45.8783 57.75 48 57.75C50.1217 57.75 52.1566 56.9203 53.6569 55.4435C55.1571 53.9666 56 51.9636 56 49.875C56 47.7864 55.1571 45.7834 53.6569 44.3065C52.1566 42.8297 50.1217 42 48 42C46.1071 42.0024 44.2764 42.6655 42.8333 43.8713L23.8542 32.9714C23.9495 32.4865 23.9984 31.9939 24 31.5C23.9984 31.0061 23.9495 30.5135 23.8542 30.0286L42.8281 19.1338C44.2733 20.3389 46.106 21.0002 48 21C50.1217 21 52.1566 20.1703 53.6569 18.6935C55.1571 17.2166 56 15.2136 56 13.125C56 11.0364 55.1571 9.03338 53.6569 7.55653C52.1566 6.07969 50.1217 5.25 48 5.25Z" fill="white"/>
</svg>
