<svg width="64" height="64" viewBox="0 0 64 64" fill="none" xmlns="http://www.w3.org/2000/svg">
<rect width="64" height="64" fill="black"/>
<path d="M54.1406 7.95835C53.3701 7.99187 52.6629 8.2135 52.0417 8.45835C51.4678 8.68437 49.4068 9.55061 46.125 10.9271C42.8432 12.3036 38.4946 14.1286 33.8594 16.0781C24.5889 19.9771 14.1713 24.363 8.83333 26.6094C8.65002 26.6858 7.90556 26.9137 7.08333 27.5417C6.2592 28.1712 5.34375 29.5372 5.34375 31.0313C5.34375 32.2365 5.94539 33.4639 6.67188 34.1667C7.39836 34.8694 8.13464 35.198 8.75 35.4427C10.5502 36.1596 16.1133 38.3813 18.5312 39.349C19.3783 41.8875 21.3678 47.8669 21.8333 49.3386H21.8281C22.2068 50.5364 22.5759 51.3171 23.0885 51.9688C23.3448 52.2946 23.6508 52.5898 24.026 52.8229C24.17 52.9124 24.3295 52.9817 24.4896 53.0469C24.5119 53.0564 24.5349 53.0587 24.5573 53.0677L24.4948 53.0521C24.5412 53.0708 24.5829 53.0983 24.6302 53.1146C24.7073 53.1412 24.7608 53.1403 24.8646 53.1615C25.2299 53.2739 25.5946 53.349 25.9323 53.349C27.3819 53.349 28.2708 52.5625 28.2708 52.5625L28.3281 52.5209L34.5885 47.224L42.2552 54.3125C42.3923 54.5062 43.4885 55.9948 46.0312 55.9948C47.5462 55.9948 48.7493 55.2501 49.5156 54.4636C50.282 53.677 50.7594 52.8722 50.974 51.7813V51.7709V51.7656C51.123 50.9913 58.4844 14.0417 58.4844 14.0417L58.4688 14.1042C58.6973 13.0846 58.7646 12.0986 58.4948 11.0938C58.225 10.0889 57.4967 9.10835 56.6198 8.59377C55.7429 8.07918 54.9112 7.92483 54.1406 7.95835ZM53.0885 13.7969C52.7993 15.2486 46.2484 48.1599 45.8229 50.3438L38.2083 43.3073C36.2456 41.4927 33.185 41.4288 31.1458 43.1511L27.2604 46.4375L29.3333 38.3333C29.3333 38.3333 43.6335 23.8583 44.4948 23.0156C45.1881 22.341 45.3333 22.1045 45.3333 21.8698C45.3333 21.5578 45.1728 21.3334 44.8021 21.3334C44.4688 21.3334 44.016 21.6528 43.776 21.8021C40.7134 23.7115 27.6004 31.1846 21.25 34.7969C21.0115 34.6541 20.7768 34.5058 20.5156 34.4011C18.4319 33.5671 14.427 31.9615 12.0833 31.0261C17.6147 28.6981 27.0964 24.7088 35.9271 20.9948C40.5615 19.0456 44.9089 17.2189 48.1875 15.8438C50.9551 14.6829 52.3988 14.0819 53.0885 13.7969ZM45.7396 50.7292H45.7448C45.7446 50.73 45.7399 50.7492 45.7396 50.75C45.7441 50.7272 45.7365 50.7456 45.7396 50.7292Z" fill="white"/>
</svg>
