<svg width="64" height="64" viewBox="0 0 64 64" fill="none" xmlns="http://www.w3.org/2000/svg">
<rect width="64" height="64" fill="black"/>
<path d="M50.872 13.1414C45.32 7.58669 37.7467 4.78402 29.7947 5.42402C19.104 6.28269 9.73336 13.7174 6.59736 23.9734C4.35736 31.3014 5.29869 38.952 8.94669 45.272L5.49069 56.7467C5.16002 57.848 6.16536 58.8854 7.27736 58.5894L19.288 55.3707C23.1787 57.4934 27.5574 58.6107 32.016 58.6134H32.0267C43.2134 58.6134 53.5494 51.7707 57.1254 41.1707C60.608 30.8347 58.032 20.3094 50.872 13.1414ZM45.0614 41.4774C44.5067 43.032 41.7894 44.5307 40.568 44.64C39.3467 44.752 38.2027 45.192 32.5814 42.976C25.816 40.3094 21.544 33.3734 21.2134 32.9307C20.88 32.4854 18.496 29.3227 18.496 26.048C18.496 22.7734 20.216 21.1627 20.8267 20.4987C21.4374 19.832 22.1574 19.6667 22.6027 19.6667C23.0454 19.6667 23.4907 19.6667 23.8774 19.6827C24.352 19.7014 24.8774 19.7254 25.376 20.832C25.968 22.1494 27.2614 25.44 27.4267 25.7734C27.592 26.1067 27.704 26.496 27.4827 26.9387C27.2614 27.3814 27.1494 27.6587 26.8187 28.048C26.4854 28.4374 26.12 28.9147 25.8214 29.2134C25.488 29.544 25.1414 29.9067 25.528 30.5707C25.9174 31.2374 27.2507 33.416 29.2294 35.1787C31.7734 37.4454 33.9147 38.1467 34.5814 38.4827C35.248 38.816 35.6347 38.76 36.024 38.3147C36.4134 37.872 37.688 36.3734 38.1307 35.7067C38.5734 35.04 39.0187 35.152 39.6294 35.3734C40.24 35.5947 43.512 37.2054 44.176 37.5387C44.8427 37.872 45.2854 38.0374 45.4507 38.3147C45.616 38.5894 45.616 39.9227 45.0614 41.4774Z" fill="white"/>
</svg>
